<?xml version="1.0" encoding="utf-8"?>
<!-- Generator: Adobe Illustrator 22.0.1, SVG Export Plug-In . SVG Version: 6.00 Build 0)  -->
<svg version="1.1" id="Layer_1" xmlns="http://www.w3.org/2000/svg" xmlns:xlink="http://www.w3.org/1999/xlink" x="0px" y="0px"
	 viewBox="0 0 200 200" style="enable-background:new 0 0 200 200;" xml:space="preserve">
<style type="text/css">
	.st0{fill:#5C6BC0;}
	.st1{fill:#3949AB;}
	.st2{fill-opacity:0;stroke:#000000;stroke-opacity:0;}
	.st3{fill:#FFFFFF;}
</style>
<path id="hsBAvjjKB" class="st0" d="M100,24L100,24L25.5,50.6L36.9,149l63.1,35l0,0l0,0l63.1-35l11.4-98.5L100,24L100,24z"/>
<path id="aGCeEg5Xx" class="st1" d="M100,41.8L100,41.8v81l0,0V184l0,0l63.1-35l11.4-98.5L100,24l0,0V41.8z"/>
<g>
	<g>
		<g>
			<path id="a4VF3fsHm" class="st2" d="M0,0"/>
		</g>
	</g>
</g>
<path class="st3" d="M143.1,119.1h-28.7v9.6h28.7V119.1z M56.9,71.3v9.6h86.2v-9.6H56.9z M143.1,94.7H85.6v9.6h57.4V94.7z"/>
</svg>
